<?xml version="1.0" encoding="UTF-8" standalone="no"?><!DOCTYPE svg PUBLIC "-//W3C//DTD SVG 1.1//EN" "http://www.w3.org/Graphics/SVG/1.1/DTD/svg11.dtd"><svg width="100%" height="100%" viewBox="0 0 4000 4000" version="1.1" xmlns="http://www.w3.org/2000/svg" xmlns:xlink="http://www.w3.org/1999/xlink" xml:space="preserve" xmlns:serif="http://www.serif.com/" style="fill-rule:evenodd;clip-rule:evenodd;stroke-linejoin:round;stroke-miterlimit:2;"><path d="M2297.41,4.569c98.869,-9.13 198.527,-4.562 296.147,13.573l-509.311,881.654c-35.316,56.963 -54.032,122.673 -54.032,189.695c-0,197.492 162.511,360.004 360.003,360.004c132.404,-0 254.535,-73.044 317.172,-189.695l509.311,-881.963c167.195,195.553 259.131,444.557 259.131,701.841c0,592.477 -487.534,1080.01 -1080.01,1080.01c-32.338,0 -64.66,-1.452 -96.868,-4.353l-935.022,1619.55c-80.267,139.119 -229.158,225.11 -389.773,225.11c-246.86,0 -449.996,-203.136 -449.996,-449.996c-0,-78.942 20.773,-156.511 60.224,-224.887l933.48,-1616.47c-131.36,-183.337 -202.029,-403.306 -202.029,-628.845c0,-555.371 428.502,-1024.76 981.574,-1075.23Z" style="fill:#5165f6;fill-rule:nonzero;"/></svg>